<svg width="60" height="67" viewBox="0 0 60 67" fill="none" xmlns="http://www.w3.org/2000/svg">
<path d="M45 5.58331H15C12.2425 5.58331 10 8.08744 10 11.1666V58.625C10 59.3654 10.2634 60.0755 10.7322 60.599C11.2011 61.1225 11.837 61.4166 12.5 61.4166H47.5C48.163 61.4166 48.7989 61.1225 49.2678 60.599C49.7366 60.0755 50 59.3654 50 58.625V11.1666C50 8.08744 47.7575 5.58331 45 5.58331ZM45 55.8333H15V11.1666H45V55.8333Z" fill="white"/>
<path d="M20 16.75H27.5V22.3333H20V16.75ZM32.5 16.75H40V22.3333H32.5V16.75ZM20 27.9167H27.5V33.5H20V27.9167ZM32.5 28.0032H40V33.5H32.5V28.0032ZM20 39.0833H27.5V44.6667H20V39.0833ZM32.5 39.0833H40V44.6667H32.5V39.0833Z" fill="white"/>
</svg>
